<?xml version="1.0" encoding="UTF-8" standalone="no"?>
<svg
   xmlns:dc="http://purl.org/dc/elements/1.1/"
   xmlns:cc="http://creativecommons.org/ns#"
   xmlns:rdf="http://www.w3.org/1999/02/22-rdf-syntax-ns#"
   xmlns:svg="http://www.w3.org/2000/svg"
   xmlns="http://www.w3.org/2000/svg"
   xmlns:sodipodi="http://sodipodi.sourceforge.net/DTD/sodipodi-0.dtd"
   xmlns:inkscape="http://www.inkscape.org/namespaces/inkscape"
   width="120"
   height="120"
   version="1.1"
   id="svg8"
   sodipodi:docname="img-uploader-error.svg"
   inkscape:version="0.92.0 r15299">
  <metadata
     id="metadata14">
    <rdf:RDF>
      <cc:Work
         rdf:about="">
        <dc:format>image/svg+xml</dc:format>
        <dc:type
           rdf:resource="http://purl.org/dc/dcmitype/StillImage" />
        <dc:title></dc:title>
      </cc:Work>
    </rdf:RDF>
  </metadata>
  <defs
     id="defs12" />
  <sodipodi:namedview
     pagecolor="#ffffff"
     bordercolor="#666666"
     borderopacity="1"
     objecttolerance="10"
     gridtolerance="10"
     guidetolerance="10"
     inkscape:pageopacity="0"
     inkscape:pageshadow="2"
     inkscape:window-width="1280"
     inkscape:window-height="701"
     id="namedview10"
     showgrid="false"
     inkscape:zoom="2.8373264"
     inkscape:cx="-0.46533682"
     inkscape:cy="65.493496"
     inkscape:window-x="-4"
     inkscape:window-y="-4"
     inkscape:window-maximized="1"
     inkscape:current-layer="svg8" />
  <g
     id="g6"
     style="color:#000000;font-family:Sans"
     transform="matrix(1.5202556,0,0,1.5202556,-8.4108433,-8.4116859)">
    <path
       style="line-height:normal;-inkscape-font-specification:Sans;text-indent:0;text-align:start;text-transform:none;overflow:visible;fill:#666666;fill-opacity:0.28900003"
       d="m 21.783,21.77 c -13.347,13.35 -13.347,35.1 0,48.447 13.348,13.347 35.098,13.347 48.446,0 C 83.575,56.869 83.551,35.143 70.204,21.795 56.857,8.448 35.13,8.425 21.783,21.77 Z m 4.582,4.583 c 10.224,-10.224 26.33,-10.8 37.253,-1.79 L 24.288,63.32 C 15.552,52.4 16.24,36.48 26.365,26.353 Z m 1.98,41.072 39.306,-38.78 c 8.807,10.918 8.147,26.84 -2.003,36.99 -10.24,10.24 -26.374,10.84 -37.3,1.79 z"
       overflow="visible"
       id="path2"
       inkscape:connector-curvature="0" />
    <path
       d="m 19.783,19.77 c -13.347,13.35 -13.347,35.1 0,48.447 13.348,13.347 35.098,13.347 48.446,0 C 81.575,54.869 81.551,33.143 68.204,19.795 54.857,6.448 33.13,6.425 19.783,19.77 Z m 4.582,4.583 c 10.224,-10.224 26.33,-10.8 37.253,-1.79 L 22.288,61.32 C 13.552,50.4 14.24,34.48 24.365,24.353 Z m 1.98,41.072 39.306,-38.78 c 8.807,10.918 8.147,26.84 -2.003,36.99 -10.24,10.24 -26.374,10.84 -37.3,1.79 z"
       style="line-height:normal;-inkscape-font-specification:Sans;text-indent:0;text-align:start;text-transform:none;overflow:visible;fill:#ff0000"
       overflow="visible"
       id="path4"
       inkscape:connector-curvature="0" />
  </g>
</svg>
